<?xml version="1.0" encoding="UTF-8"?>
<svg xmlns="http://www.w3.org/2000/svg" xmlns:svg="http://www.w3.org/2000/svg" xmlns:rdf="http://www.w3.org/1999/02/22-rdf-syntax-ns#" xmlns:cc="http://creativecommons.org/ns#" xmlns:dc="http://purl.org/dc/elements/1.1/" viewBox="0 0 3928.74 2374.0391" id="svg2444" width="3928.74" height="2374.0391">
  <defs id="defs832">
    <style id="style824">.cls-1{fill:none;}.cls-2{isolation:isolate;}.cls-10,.cls-24,.cls-3{fill:#fff;}.cls-3{opacity:0;}.cls-4{fill:#e0e7f3;}.cls-5{fill:#d0daed;}.cls-6{fill:#ff625f;}.cls-7{clip-path:url(#clip-path);}.cls-8{opacity:0.3;}.cls-28,.cls-9{fill:#34509c;}.cls-11{fill:#2c3579;}.cls-12{fill:#81bc8c;}.cls-13,.cls-25,.cls-28{opacity:0.5;}.cls-14{fill:#5c9a87;}.cls-15{fill:#f19a6d;}.cls-16{fill:#ef7c59;}.cls-17{fill:#38261f;}.cls-18,.cls-25{fill:#a5bfdf;}.cls-19{fill:#52261f;}.cls-20{fill:#1a124c;}.cls-21{fill:#c17552;}.cls-22{fill:#f66438;stroke:#c17552;}.cls-22,.cls-23{stroke-miterlimit:10;}.cls-23{fill:#ffac3d;stroke:#f1a953;}.cls-24{opacity:0.6;}.cls-25,.cls-28{mix-blend-mode:multiply;}.cls-26{fill:#f2f2f2;}.cls-27{clip-path:url(#clip-path-2);}.cls-29{fill:#183a59;}.cls-30{fill:#002b81;}.cls-31{fill:#f7ce9c;}.cls-32{fill:#1d456b;}.cls-33{fill:#3074b3;}.cls-34{fill:#141f35;}.cls-35{fill:#4c352e;}.cls-36{fill:#f1a87f;}.cls-37{fill:#f1a953;}.cls-38{fill:#ffa600;}.cls-39{fill:#fbfcfd;}.cls-40{fill:#f3ce90;}</style>
    <clipPath id="clip-path">
      <circle class="cls-1" cx="3984.8701" cy="1620.1" r="207.53" transform="rotate(-45,3984.8773,1620.0998)" id="circle826"></circle>
    </clipPath>
    <clipPath id="clip-path-2">
      <path class="cls-1" d="m 3270.48,685 h -555 c -158.73,0 -287.4,128.68 -287.4,287.4 v 257.67 c 0,118.51 71.72,220.25 174.13,264.21 l -45.3,122.3 203.44,-99.1 h 510.11 c 158.73,0 287.4,-128.68 287.4,-287.41 V 972.38 C 3557.88,813.66 3429.21,685 3270.48,685 Z" id="path829"></path>
    </clipPath>
  </defs>
  <title id="title834">19</title>
  <g class="cls-2" id="g2442" transform="translate(-391.08142,-360)">
    <g id="_09" data-name="09">
      <rect id="_09-2" data-name="09" class="cls-3" width="4680" height="3120" x="0" y="0"></rect>
      <circle class="cls-6" cx="3984.8701" cy="1620.09" r="207.53" id="circle843"></circle>
      <g class="cls-7" clip-path="url(#clip-path)" id="g851">
        <circle class="cls-6" cx="3956.77" cy="1620.09" r="207.53" id="circle845"></circle>
        <circle class="cls-8" cx="3956.77" cy="1620.09" r="207.53" id="circle847"></circle>
        <ellipse class="cls-9" cx="3984.8701" cy="1620.09" id="circle849" rx="207.53008" ry="207.53" style="fill:#00438b;fill-opacity:1"></ellipse>
      </g>
      <circle class="cls-10" cx="3984.8701" cy="1620.09" r="150.78999" id="circle853"></circle>
      <circle class="cls-9" cx="3984.8701" cy="1620.09" r="97.720001" transform="rotate(-16.85,3983.641,1619.8114)" id="circle855" style="fill:#00438b;fill-opacity:1"></circle>
      <path class="cls-10" d="m 3984.87,1575.38 a 44.72,44.72 0 1 0 44.72,44.71 44.71,44.71 0 0 0 -44.72,-44.71 z" id="path857"></path>
      <path class="cls-11" d="m 4246.12,1448.91 -263.53,167.6 a 4.25,4.25 0 0 0 4.56,7.17 l 263.53,-167.6 a 4.25,4.25 0 0 0 -4.56,-7.17 z" id="path859"></path>
      <polygon class="cls-11" points="4232.64,1416.1 4192.41,1447.44 4188.74,1493.11 4230.7,1466.84 " id="polygon861"></polygon>
      <polygon class="cls-11" points="4276.51,1477.31 4232.65,1464.03 4188.78,1490.04 4236.72,1506.77 " id="polygon863"></polygon>
      <g class="cls-13" id="g869">
        <path class="cls-10" d="m 3608.21,1793.49 -7.87,1.62 c 0.34,1.64 34.12,164.49 75.36,269.34 41.73,106.13 92.39,327 76.78,431.61 l 7.94,1.19 c 15.81,-105.88 -35.19,-328.79 -77.25,-435.74 -40.98,-104.21 -74.62,-266.39 -74.96,-268.02 z" id="path867"></path>
      </g>
      <path class="cls-15" d="m 2052.59,1966.68 c -56.54,-223.19 -81.68,-271.13 -81.68,-271.13 0,0 -168.63,36 -183.48,133.26 -14.85,97.26 106.94,472.68 157.93,543.66 28.08,39.09 592.22,153.57 592.22,153.57 l 25.54,-87.8 c 0,0 -348.58,-162.3 -403.32,-202.87 -38.29,-51.29 -86.8,-188.08 -107.21,-268.69 z" id="path885"></path>
      <path class="cls-16" d="m 2004.09,2284.22 c -23.82,-42.34 -81.68,-434.78 -81.68,-434.78 L 1800,1794.5 a 94.45,94.45 0 0 0 -12.55,34.31 c -14.86,97.29 106.94,472.68 157.93,543.66 25.44,35.4 490.63,132.66 578.1,150.68 l 15.13,-0.56 1.81,-6.23 c -86.28,-32.26 -514.91,-194.07 -536.33,-232.14 z" id="path887"></path>
      <ellipse class="cls-17" cx="1477.38" cy="929.79999" rx="107.5" ry="102.87" id="ellipse889"></ellipse>
      <path class="cls-17" d="m 1854.34,931.61 c -91.89,-51.07 -144.23,-24.5 -144.23,-24.5 -285.57,-63.06 -316.89,249.05 -317.36,333.76 -0.47,84.71 -6.61,181.84 -140.53,249.29 -263.49,132.71 -68,406.22 -68,406.22 37,71.86 158.15,106.7 158.15,106.7 -1.76,-68.58 298.47,-317.52 477.46,-414.31 45.85,-56.15 67.92,-159.1 69.6,-167.2 -12.94,81.91 -30.89,127.18 -45.86,152.36 154.09,-118.63 104.94,-589.93 10.77,-642.32 z" id="path891"></path>
      <path class="cls-18" d="m 1441.54,1026.87 c 7.41,-30.91 30.29,-59.24 50.39,-76 43.15,-36 90.87,-41.23 90.87,-41.23 -165.25,-5.01 -141.26,117.23 -141.26,117.23 z" id="path893"></path>
      <path class="cls-15" d="m 1815.31,1539.32 c -27.56,-11 -76,-25.54 -124.9,-30 -72,-6.54 -143.93,0 -143.93,0 -10,34.22 44,129.89 186.88,151.25 142.88,21.36 150.06,-94 81.95,-121.25 z" id="path895"></path>
      <path class="cls-15" d="m 1814.4,1388.18 -188,-48.26 -11.18,-2.86 c -9.34,141.68 -55.76,203.75 -61.32,227.68 -11.7,50.33 120.79,121.46 182.22,124 93.57,4 74,-94.88 73.19,-95.31 -10.52,-5.54 -10.4,-48.77 -7.11,-94.15 3.87,-54 12.2,-111.1 12.2,-111.1 z" id="path897"></path>
      <path class="cls-16" d="m 1802.17,1499.33 c 3.9,-54 12.23,-111.15 12.23,-111.15 l -188,-48.26 c 19.47,53.08 69.34,149.73 175.77,159.41 z" id="path899"></path>
      <path class="cls-17" d="m 1893.61,1004.54 c -52.35,-38.92 -110.27,-48.14 -110.27,-48.14 -198.84,-40.34 -239.62,149.08 -233.63,201.27 8.38,73.09 58.37,161.14 58.37,161.14 l 281.67,-1 22.19,-55.19 c 81.96,-162.3 23.29,-227.13 -18.33,-258.08 z" id="path901"></path>
      <path class="cls-15" d="m 1804.57,1026.29 c -125.24,-0.8 -160.93,24 -161.67,136.17 -0.07,9.57 -1.8,108.54 -0.43,117.76 0,0 -24.09,176.37 162.92,179.38 9,0.14 18,-0.25 25,-5.3 123.88,-89.3 100.33,-217.6 100.37,-218.37 0.32,-5.83 10.63,-82 10.63,-82 0.76,-112.19 -11.57,-126.85 -136.82,-127.64 z" id="path903"></path>
      <path class="cls-15" d="m 1612,1189.23 c -33.73,1.14 -60,31.66 -58.73,68.15 1.27,36.49 29.71,65.14 63.44,64 33.73,-1.14 60,-31.67 58.73,-68.16 -1.27,-36.49 -29.74,-65.14 -63.44,-63.99 z" id="path905"></path>
      <path class="cls-17" d="m 1620.63,1229.25 c -12,-7.8 -25.25,-4.3 -25.81,-4.15 l 1.78,6.24 c 0.1,0 11,-2.82 20.43,3.35 7,4.6 11.68,13 13.85,24.9 -8,-0.32 -24.89,0.26 -32.05,10.05 l 5.4,3.76 c 5.87,-8 23.75,-7.83 30.14,-7.08 l 4.22,0.5 -0.53,-4.12 c -2.06,-16.03 -7.93,-27.29 -17.43,-33.45 z" id="path907"></path>
      <path class="cls-16" d="m 1651.9,1222.85 c 0,0 -8.48,29 -10.71,57.35 0,0 -6.11,45 11.93,90 30,-5.84 54.71,-28.9 60.52,-60.05 7.62,-40.8 -20.03,-79.86 -61.74,-87.3 z" id="path909"></path>
      <path class="cls-16" d="m 1883.7,1318.16 a 73.58,73.58 0 0 0 16.47,61.36 230.41,230.41 0 0 0 32.35,-118.14 c -24.52,8.92 -43.78,29.8 -48.82,56.78 z" id="path911"></path>
      <path class="cls-17" d="m 1772.32,1317.53 -4.51,3.34 c 18,23.14 37.61,31.71 51.9,34.69 11.78,2.46 20,1.12 20.69,1 l -1,-5.44 c -1.49,0.24 -36.4,5.78 -67.08,-33.59 z" id="path913"></path>
      <path class="cls-19" d="m 1756.62,1165.13 c -14.27,5.39 -11.11,14.75 -9.68,17.9 0.83,1.85 6.09,0 18.6,-1 26.65,-2.23 37,3 43.11,-3.94 3.57,-4.12 4.34,-11 1.59,-14.91 -6.91,-9.76 -51.74,1.24 -53.62,1.95 z" id="path915"></path>
      <path class="cls-19" d="m 1937.76,1185.25 c -1.42,-0.83 -33.76,-16.16 -40.73,-9.14 -2.78,2.79 -3.12,8.5 -0.79,12.32 4,6.47 13.13,3.58 34.46,8.92 10,2.51 14,4.66 15,3.28 1.56,-2.38 2.9,-9.11 -7.94,-15.38 z" id="path917"></path>
      <path class="cls-17" d="m 1863.65,1256.51 c 10,13 13.68,23.8 10.59,31.38 -3.9,9.57 -17.45,11.9 -17.59,11.92 l 1.08,6.39 c 0.71,-0.12 17.33,-2.91 22.65,-15.87 4.08,-9.94 0.23,-22.63 -11.44,-37.72 z" id="path919"></path>
      <path class="cls-17" d="m 1776.68,1210.92 c -4.8,0.06 -8.61,6.63 -8.51,14.68 0.1,8.05 4.09,14.53 8.89,14.47 4.8,-0.06 8.61,-6.63 8.5,-14.68 -0.11,-8.05 -4.08,-14.53 -8.88,-14.47 z" id="path921"></path>
      <path class="cls-17" d="m 1912.77,1227 c -4.38,0.06 -7.85,6 -7.75,13.39 0.1,7.39 3.72,13.24 8.09,13.18 4.37,-0.06 7.85,-6 7.75,-13.38 -0.1,-7.38 -3.72,-13.28 -8.09,-13.19 z" id="path923"></path>
      <path class="cls-17" d="m 1647.54,973.86 c -24.39,106.82 -123,237.62 -123,237.62 0,0 44.08,30.11 151.9,10.79 107.82,-19.32 201.56,-191.5 201.56,-191.5 -47.41,-175.16 -230.46,-56.91 -230.46,-56.91 z" id="path925"></path>
      <path class="cls-17" d="m 1855.92,1038.84 c 0,0 61.4,31.07 71.3,70.17 9.9,39.1 2.75,158.53 27,157.38 0,0 55.16,-145.24 1.41,-216.8 -57.06,-75.89 -99.71,-10.75 -99.71,-10.75 z" id="path927"></path>
      <path class="cls-18" d="m 1994.52,2429.28 c -28.94,-16.13 -54.38,-32.58 -62.24,-49.1 -6.15,-12.89 -5.61,-41.29 -1.57,-77.5 11.39,-102.23 51,-266.58 48.84,-319.09 -2.93,-71.08 -16.64,-121.19 -16.64,-121.19 26.42,-27.92 74.63,-37.76 74.63,-37.76 -8.06,-48.31 -63.85,-220.83 -89.29,-247 -25.44,-26.17 -133,-38.3 -133,-38.3 l -3,-46.92 -218.45,-79.18 -47.32,96.12 c 0,0 -54.24,264.45 -93.4,488.74 q -2.46,14.19 -4.89,28.13 c -19.79,115.36 -77.13,471.17 -77.13,513.81 0,78.12 334.45,113.95 425.49,62.8 40.08,-22.53 96.46,-33.17 150.12,-41.65 68.21,-10.73 132,-17.91 152.46,-41.3 24.26,-27.8 -47.13,-58.6 -104.61,-90.61 z" id="path929"></path>
      <path class="cls-4" d="m 1664.76,1241.57 c -3.88,-46.59 -46.64,-81.59 -95,-77.78 l -10.86,0.85 c -48.38,3.81 -84.79,45 -80.91,91.63 l 4.55,54.69 c 3.88,46.58 46.64,81.58 95,77.77 l 10.86,-0.85 c 48.38,-3.81 84.79,-45 80.91,-91.63 z" id="path931"></path>
      <path class="cls-4" d="m 1583.93,1002.31 c -45.41,85.88 -45.88,185.57 -41.36,199 0,0 45,-2.71 56.48,-2 10.79,-90.9 67.83,-260.38 149,-300.93 l -47.5,-2.06 c -41.77,1.32 -94.67,64.48 -116.62,105.99 z" id="path933"></path>
      <polygon class="cls-20" points="" id="polygon935"></polygon>
      <path class="cls-20" d="m 1809.69,1388.55 c -146.26,0 -218.88,-110.91 -219.76,-112.28 l -13.93,8.21 c 0.77,1.2 77.88,119.79 233.69,119.79 h 3.12 l -0.18,-15.73 z" id="path937"></path>
      <polygon class="cls-20" points="1589.92,1276.26 1582.97,1280.37 1589.93,1276.27 " id="polygon939"></polygon>
      <path class="cls-18" d="m 1608,1259.84 c -1.93,-23.21 -23.24,-40.65 -47.34,-38.75 l -5.41,0.42 c -24.11,1.9 -42.24,22.45 -40.31,45.66 l 2.26,27.25 c 1.94,23.21 23.24,40.65 47.35,38.75 l 5.41,-0.43 c 24.1,-1.9 42.24,-22.44 40.31,-45.65 z" id="path941"></path>
      <path class="cls-20" d="m 1829.05,1383.29 h -14.69 a 13.11,13.11 0 1 0 0,26.21 h 14.69 a 13.11,13.11 0 1 0 0,-26.21 z" id="path943"></path>
      <ellipse class="cls-21" cx="2355.4514" cy="2565.009" rx="1964.37" ry="169.03" id="ellipse2139" style="fill:#c3c3c3;fill-opacity:1"></ellipse>
      <rect class="cls-10" x="3259.4099" y="2224.8899" width="303.60999" height="22" transform="rotate(-79.96,3411.3685,2235.8749)" id="rect2141"></rect>
      <rect class="cls-10" x="3385.95" y="2106.8201" width="91.300003" height="34.099998" transform="rotate(-79.96,3431.7984,2123.8476)" id="rect2143"></rect>
      <polygon class="cls-9" points="3359.47,2425.46 3384.85,2122.91 3376.19,2101.72 3362.92,2121.07 3337.55,2423.62 " id="polygon2145"></polygon>
      <polygon class="cls-17" points="3307.41,2445.12 3329,2440.92 3270.98,2142.9 3256.88,2124.87 3249.39,2147.11 " id="polygon2147"></polygon>
      <polygon class="cls-22" points="3408.39,2261.31 3252.69,2261.31 3283.52,2510.24 3377.55,2510.24 " id="polygon2149"></polygon>
      <polygon class="cls-23" points="3443.84,2261.31 3305.1,2261.31 3318.98,2510.24 3413.01,2510.24 " id="polygon2151" style="fill:#ff8800;fill-opacity:1"></polygon>
      <path class="cls-18" d="m 1927.68,1819.08 4.16,488.38 101.8,-17 a 209.21,209.21 0 0 0 93.91,-41.2 l 32.1,-14.62 -125.86,-432.94 z" id="path2173"></path>
      <path class="cls-18" d="m 3172.75,1874.48 h -689.9 a 31.09,31.09 0 0 0 -30,23 l -132,494.63 c 0,0 -237.68,14.21 -265.34,15.51 -27.66,1.3 -33.29,25.59 -33.29,25.59 h 1043.64 a 46.46,46.46 0 0 0 45.67,-38 l 8,-43 82,-442.7 a 29.38,29.38 0 0 0 -28.78,-35.03 z" id="path2175"></path>
      <path class="cls-5" d="m 3172.75,1874.48 h -432.48 c -12.88,95.83 -19.78,293.61 122.54,377.63 120.34,71 208.11,93.39 256.68,100.19 l 82,-442.7 a 29.38,29.38 0 0 0 -28.74,-35.12 z" id="path2177"></path>
      <path class="cls-9" d="m 2452.83,1897.53 -132,494.63 h 35 c 0,0 111.39,-421.53 128,-474.49 6.62,-21.05 13.23,-34.56 18.83,-43.19 h -19.79 a 31.09,31.09 0 0 0 -30.04,23.05 z" id="path2179" style="fill:#00438b;fill-opacity:1"></path>
      <ellipse class="cls-10" cx="2798.04" cy="2163.8799" rx="96.18" ry="76.459999" transform="rotate(-80.93,2797.9866,2163.8852)" id="ellipse2181"></ellipse>
      <path class="cls-15" d="m 2049.71,2316.24 c -10.34,-7 -107.55,9.7 -140.39,12.38 -47.33,-6.9 -353.06,-52.2 -366.81,-72.91 -14.91,-22.45 3.22,-607.82 -34.06,-619.23 0,0 -156.7,-26.84 -213.3,84 -31.21,61.08 47,688.69 102.17,720 105.49,59.79 507.46,-1.26 536.76,-5.81 a 15.89,15.89 0 0 0 5,4.16 c 47.21,22.11 107.56,-58.4 174.6,1.91 28.35,25.51 73.17,-2.76 67.5,-23.21 -4.68,-16.98 -119.05,-92.88 -131.47,-101.29 z" id="path2183"></path>
      <path class="cls-16" d="m 1915.46,2412.56 c -11.13,-14.66 -203,3.26 -265.6,0 -62.6,-3.26 -182.16,-1.63 -215.53,-45.6 -33.37,-43.97 -66.75,-526 -64,-591.11 1.47,-34.51 -21.65,-69.48 -49.51,-91.1 a 142.58,142.58 0 0 0 -25.7,35.7 c -31.21,61.08 47,688.69 102.17,720 105.49,59.79 507.46,-1.26 536.76,-5.81 a 15.89,15.89 0 0 0 5,4.16 l 1.19,0.52 c -8.06,-7.89 -18.58,-18.59 -24.78,-26.76 z" id="path2185"></path>
      <path class="cls-18" d="m 1546.48,1509.33 c 0,0 -191.41,10.51 -237.77,73.9 -66,90.25 -35,473.17 4.17,681.56 15.58,82.91 56.37,134.87 56.37,134.87 0,0 106,-92.59 199.72,-139.17 0,0 -7.81,-392.06 -23.17,-452.93 -13.63,-54.03 0.68,-298.23 0.68,-298.23 z" id="path2187"></path>
      <path class="cls-25" d="m 1900,1723.63 c 0,0 38.06,137.78 56.27,185.29 18.21,47.51 -25.12,395.83 -25.12,395.83 l 126.39,-20.2 c 0,0 -59.9,-304.37 -73.14,-374.05 -13.24,-69.68 -84.4,-186.87 -84.4,-186.87 z" id="path2189"></path>
      <path class="cls-25" d="m 1578.9,1524.09 c 0,0 99.3,104.52 211.84,41.17 0,0 -160.53,7.92 -211.84,-41.17 z" id="path2191"></path>
      <path class="cls-25" d="m 1432.32,1680.38 c -3.85,113.45 -4.49,209.57 -10.07,334.81 -5.58,125.24 10.06,275.48 8,335.49 69.12,-53.68 129.5,-85.21 129.5,-85.21 0,0 -23.92,-332.8 -43.78,-385.06 -19.86,-52.26 -83.65,-200.03 -83.65,-200.03 z" id="path2193"></path>
      <path class="cls-18" d="m 3270.48,685 h -555 c -158.73,0 -287.4,128.68 -287.4,287.4 v 257.67 c 0,118.51 71.72,220.25 174.13,264.21 l -45.3,122.3 203.44,-99.1 h 510.11 c 158.73,0 287.4,-128.68 287.4,-287.41 V 972.38 C 3557.88,813.66 3429.21,685 3270.48,685 Z" id="path2207" style="fill:#6425bd;fill-opacity:1"></path>
      <g class="cls-27" clip-path="url(#clip-path-2)" id="g2317">
        <path class="cls-9" d="m 3177.28,1079.61 -94.14,-37.93 -81.33,-9.18 -140.75,52.62 a 284.4,284.4 0 0 0 -171.43,180.1 l -77.38,243 a 157.86,157.86 0 0 0 3.62,106 l 10.77,27.23 149.55,-79.57 48.52,-100.35 403.51,-13.53 c 0,0 10.31,-343.72 -50.94,-368.39 z" id="path2209"></path>
        <path class="cls-9" d="m 3177.28,1079.61 -94.14,-37.93 -81.33,-9.18 -140.75,52.62 a 284.4,284.4 0 0 0 -171.43,180.1 l -77.38,243 c -11.05,34.69 -46.08,196.73 -46.08,196.73 l 180.23,-74.2 78.31,-169.24 403.51,-13.51 c 0,0 10.31,-343.72 -50.94,-368.39 z" id="path2211"></path>
        <path class="cls-28" d="m 3001.81,1032.5 -82.44,30.82 c 3.15,2.43 4.76,12.35 9.4,14.69 0,0 24.78,28.75 69.9,31 45.12,2.25 65,-4.86 65,-4.86 l 61.49,180 1.58,-224.89 -43.62,-17.58 z" id="path2213"></path>
        <path class="cls-28" d="m 2688.93,1607 67.21,6.56 68.57,-152 c 0,0 48.62,-126.41 41.58,-142.84 -7.04,-16.43 -175.29,283.92 -177.36,288.28 z" id="path2215"></path>
        <path class="cls-20" d="m 3252.81,1354.52 -71.62,-143.94 h -276.45 c 0,0 -59.19,207.8 -80,250.88 v 543.81 h 240.55 l 10.65,-139.13 4.32,139.13 h 225.9 L 3253,1668.06 Z" id="path2217"></path>
        <rect class="cls-29" x="2974.6101" y="1840.67" width="186.99001" height="3.05" id="rect2219"></rect>
        <rect class="cls-29" x="2994.5901" y="1782.79" width="163.64999" height="3.05" transform="matrix(0.01,-1,1,0.01,1274.41,4850.41)" id="rect2221"></rect>
        <path class="cls-29" d="m 3077,1833.8 -2.1,-2.22 a 100.84,100.84 0 0 0 31.42,-73 v -62.85 h 3.05 v 62.85 A 103.93,103.93 0 0 1 3077,1833.8 Z" id="path2223"></path>
        <path class="cls-18" d="m 2818.67,1681.44 v 138.79 c 112.16,0 106.25,-137.71 106.25,-137.71 z" id="path2225"></path>
        <polygon class="cls-30" points="3181.45,1247.31 3162.25,1209.7 3087.18,1209.7 3121.95,1261.16 " id="polygon2227"></polygon>
        <path class="cls-30" d="m 2904.74,1210.58 c 0,0 -4.19,14.68 -10.69,37 l 9.8,14.52 59.5,-13.86 -19.19,-37.61 z" id="path2229"></path>
        <polygon class="cls-29" points="3258.17,1690.69 3253.01,1668.06 2824.72,1668.06 2824.72,1690.69 " id="polygon2231"></polygon>
        <rect class="cls-31" x="3035.9299" y="1654.9399" width="96.419998" height="52.470001" rx="15.14" id="rect2233"></rect>
        <rect class="cls-32" x="2974.6101" y="1650.55" width="19.799999" height="63.93" id="rect2235"></rect>
        <rect class="cls-32" x="2858.6299" y="1650.55" width="19.799999" height="63.93" id="rect2237"></rect>
        <rect class="cls-32" x="3151.7" y="1650.55" width="19.799999" height="63.93" id="rect2239"></rect>
        <path class="cls-18" d="m 2925,1319.78 c 0,0 -25.58,156.43 123.11,156.43 148.69,0 123.12,-156.43 123.12,-156.43 z" id="path2241"></path>
        <polygon class="cls-20" points="3182.77,1248.19 3156.25,1065.35 3101.49,1043.4 3131.19,1248.19 " id="polygon2243"></polygon>
        <polygon class="cls-20" points="2963.35,1248.19 2934.78,1051.3 2886,1070.53 2911.77,1248.19 " id="polygon2245"></polygon>
        <path class="cls-33" d="m 3155.12,1239.62 a 9.36,9.36 0 1 1 9.36,-9.36 9.37,9.37 0 0 1 -9.36,9.36 z m 0,-15.74 a 6.38,6.38 0 1 0 6.38,6.38 6.38,6.38 0 0 0 -6.38,-6.38 z" id="path2247"></path>
        <path class="cls-33" d="m 2934.62,1239.62 a 9.36,9.36 0 1 1 9.36,-9.36 9.37,9.37 0 0 1 -9.36,9.36 z m 0,-15.74 a 6.38,6.38 0 1 0 6.38,6.38 6.38,6.38 0 0 0 -6.38,-6.38 z" id="path2249"></path>
        <path class="cls-15" d="m 2988.53,983.54 -10.29,84 c 0,0 57.45,41.16 111.47,-0.86 -0.86,-36.87 -7.72,-102 -7.72,-102 z" id="path2251"></path>
        <path class="cls-16" d="m 2988.53,983.54 -5.41,44.18 c 36.28,39.85 93.82,-14.29 102.66,-23 -1.92,-22.25 -3.79,-40.05 -3.79,-40.05 z" id="path2253"></path>
        <path class="cls-17" d="m 3164.44,816 c -6.37,-33.28 -38.68,-35.24 -38.68,-35.24 3.92,-25.46 -21.05,-44.55 -59.72,-40.63 -38.67,3.92 -48.46,-17.14 -92.52,-22.52 -44.06,-5.38 -63.63,37.2 -53.35,73.92 10.28,36.72 53.35,40.14 53.35,40.14 l 3.48,121.93 107.18,2.94 c 27.86,0 50.45,-21.15 50.45,-47.24 a 44.32,44.32 0 0 0 -1.64,-11.74 c 21.44,-21.56 35.85,-58.51 31.45,-81.56 z" id="path2255"></path>
        <path class="cls-15" d="m 3074.29,758.16 c -56.4,-9.29 -91.79,7.92 -109.28,65.93 -0.89,2.94 -1.58,5.92 -2.31,8.9 -3.45,14 -6.22,31.23 -2.52,39.17 0,0 -30.43,73.15 27.87,136.14 6.64,7.18 38.77,3.33 47.76,1.53 75.81,-15.16 68.23,-98.56 68.23,-98.56 1.7,-5 29.82,-7 31.43,-12.19 15.47,-50.08 7.71,-129.56 -61.18,-140.92 z" id="path2257"></path>
        <path class="cls-16" d="m 3068.49,833.18 c 0,0 -36.32,15.79 -49.93,2.44 -14.2,-13.92 -13.22,-32.3 -13.22,-32.3 0,0 -12.79,26.92 -43.74,18.38 0,0 19.27,14.58 41.46,8.7 0,0 15,30.68 44.39,26.76 0,0 17,29.13 39.51,25 -9.32,-8.56 -17.82,-23.37 -18.47,-48.98 z" id="path2259"></path>
        <path class="cls-16" d="m 2959.79,871.16 a 9.89,9.89 0 0 0 0.39,1 c 0,0 -17.61,42.43 -0.27,90.49 11.6,-10.77 19,-27.23 19,-45.69 0,-18.46 -7.45,-35.04 -19.12,-45.8 z" id="path2261"></path>
        <path class="cls-16" d="m 3100.25,888.52 c -18.84,0 -34.12,19.52 -34.12,43.6 0,19.38 9.91,35.79 23.6,41.46 17.35,-28.49 14.31,-62.31 14.31,-62.31 1.1,-3.25 13.16,-5.21 22,-7.59 -6.22,-9.27 -15.46,-15.16 -25.79,-15.16 z" id="path2263"></path>
        <path class="cls-17" d="m 3004.17,945.38 -1.26,3 a 36.11,36.11 0 0 0 11.44,2.13 c 9.53,0.38 24,-2 39.69,-15.51 l -2.15,-2.49 c -25.17,21.68 -47.5,12.95 -47.72,12.87 z" id="path2265"></path>
        <path class="cls-17" d="m 3071,852.92 c -1,-0.59 -24.42,-11.25 -29.21,-6.46 -1.91,1.9 -2.2,5.85 -0.66,8.53 2.6,4.52 8.85,2.61 23.24,6.53 6.75,1.84 9.45,3.37 10.1,2.42 1.08,-1.63 3.78,-6.56 -3.47,-11.02 z" id="path2267"></path>
        <path class="cls-17" d="m 2972.29,845.49 c -6.23,3 -6.4,8.55 -5.88,10.16 0.3,0.93 2.59,-0.06 8,-0.75 11.42,-1.48 15.72,1.09 18.49,-2.57 1.64,-2.17 2.15,-5.72 1.09,-7.68 -2.73,-4.93 -20.88,0.45 -21.7,0.84 z" id="path2269"></path>
        <path class="cls-17" d="m 3053.15,879.36 c -2.38,-0.62 -5.1,1.9 -6.07,5.63 -0.97,3.73 0.16,7.26 2.54,7.88 2.38,0.62 5.1,-1.9 6.07,-5.63 0.97,-3.73 -0.16,-7.24 -2.54,-7.88 z" id="path2271"></path>
        <path class="cls-17" d="m 2984.34,870.61 c -2.17,-0.56 -4.71,2 -5.69,5.72 -0.98,3.72 0,7.19 2.17,7.76 2.17,0.57 4.71,-2 5.69,-5.71 0.98,-3.71 0,-7.2 -2.17,-7.77 z" id="path2273"></path>
        <path class="cls-16" d="m 3129.75,881.46 c -15.14,-4.83 -31.75,4.84 -37.11,21.6 -5.36,16.76 2.59,34.27 17.73,39.1 15.14,4.83 31.75,-4.83 37.1,-21.6 5.35,-16.77 -2.58,-34.26 -17.72,-39.1 z" id="path2275"></path>
        <path class="cls-17" d="m 3120.57,898.85 c -5.13,1.65 -9.28,6.14 -12.31,13.34 l -0.83,1.94 2.09,0.32 c 3,0.47 11.07,2.64 12.67,7.08 l 3.1,-1.12 c -2,-5.44 -9.46,-7.88 -13.17,-8.78 2.51,-5.18 5.68,-8.42 9.42,-9.64 a 12.75,12.75 0 0 1 9.63,1 l 1.71,-2.81 a 15.9,15.9 0 0 0 -12.31,-1.33 z" id="path2277"></path>
        <path class="cls-34" d="m 3100.26,898 1,-84 -7.92,-17 c 0,0 -23.82,95.45 6.92,101 z" id="path2279"></path>
        <path class="cls-17" d="m 3011.14,891.31 -0.61,-3.23 c -3.45,0.64 -20.8,4.15 -23.47,9.91 a 4,4 0 0 0 0.17,3.85 c 3.85,6.79 13.13,12.36 13.53,12.6 l 1.68,-2.83 c -0.09,-0.05 -8.93,-5.37 -12.35,-11.4 a 0.79,0.79 0 0 1 -0.05,-0.83 c 1.44,-3.11 13.2,-6.59 21.1,-8.07 z" id="path2281"></path>
        <path class="cls-17" d="m 3116.41,775.54 c 0,0 -21.68,-29.12 -71.87,-28.5 -50.19,0.62 -88.59,34.69 -87.67,73.42 a 36.07,36.07 0 0 0 26.65,2.17 c 14.56,-4.65 21.82,-19.31 21.82,-19.31 0,0 -3.24,31.39 20,37.58 23.24,6.19 41.82,-6.81 41.82,-6.81 0,0 6.19,40.58 19.51,49.25 6.82,5 13.59,14.63 13.59,14.63 0,0 4.69,-16.49 17.39,-15.56 12.7,0.93 23.86,8.68 23.86,8.68 0,0 9.6,-61 2.78,-83.33 -6.82,-22.33 -27.88,-32.22 -27.88,-32.22 z" id="path2283"></path>
        <path class="cls-17" d="m 3204.86,880.3 -61.63,-19 a 18.87,18.87 0 0 0 -23.09,11 l -61,152.83 a 18.87,18.87 0 0 0 12,25 l 61.63,19 a 18.88,18.88 0 0 0 23.09,-11 l 61,-152.83 a 18.87,18.87 0 0 0 -12,-25 z" id="path2285"></path>
        <path class="cls-35" d="m 3201.2,888.11 -56.11,-17.28 a 17.17,17.17 0 0 0 -21,10 L 3068.53,1020 a 17.18,17.18 0 0 0 10.9,22.8 l 56.11,17.29 a 17.2,17.2 0 0 0 21,-10.06 l 55.53,-139.15 a 17.18,17.18 0 0 0 -10.87,-22.77 z" id="path2287"></path>
        <path class="cls-4" d="m 3195.51,899 a 6.47,6.47 0 1 0 6.46,6.47 6.47,6.47 0 0 0 -6.46,-6.47 z" id="path2289"></path>
        <path class="cls-15" d="m 3141.59,878.5 c -7.66,2.74 -0.8,21.76 5.19,35.21 -7,-13.2 -18.34,-30.61 -27,-25.6 -5.66,3.29 -3.08,13.38 1.84,24 -5.58,-6.71 -11.48,-10.83 -16.16,-7 -4.92,4 0.1,17.59 6.13,29.84 -5.66,-8.28 -12.14,-15 -16.8,-11.5 -11.26,8.37 22,33.14 16.56,64.55 -4.09,23.76 -2.16,38.55 1.2,49 2.45,7.63 5.66,13 7.88,17.81 18.36,-2.35 36.76,-9.43 52,-16.92 1.18,-6.75 2.16,-14.67 2.91,-24 0.75,-9.33 1.27,-20 1.54,-32.28 0.26,-11.37 3.56,-31.1 1.61,-40.09 -2.88,-13.43 -23.62,-67.77 -36.9,-63.02 z" id="path2291"></path>
        <path class="cls-16" d="m 3123.86,956.78 a 174,174 0 0 0 -12.26,-21.86 c 5.69,11.53 12.26,21.86 12.26,21.86 z" id="path2293"></path>
        <path class="cls-16" d="m 3153.29,927.17 c -0.24,-0.58 -2.76,-6.4 -6.5,-13.43 3.21,7.26 6.21,12.85 6.5,13.43 z" id="path2295"></path>
        <path class="cls-16" d="m 3139.77,942.56 c 0,0 -8.6,-19 -18.14,-30.45 6.84,14.72 18.14,30.45 18.14,30.45 z" id="path2297"></path>
        <path class="cls-16" d="m 3145.75,910.53 c -7.68,-12.55 -14.45,-19.21 -14.08,-18.76 8.83,10.81 18.58,30 21.22,35.34 2.64,5.34 5.54,10.62 8.18,16 0.07,0.14 0.26,0 0.21,-0.11 -2.15,-5.6 -4.29,-11.28 -6.93,-16.66 -2.64,-5.38 -5.47,-10.69 -8.6,-15.81 z" id="path2299"></path>
        <path class="cls-16" d="m 3121.66,912.52 c 3.55,6.76 17,33.56 20.17,40.45 0.05,0.11 0.18,0 0.16,-0.08 -1.31,-8.26 -11.44,-29.74 -20.13,-40.71 -0.37,-0.46 -0.47,-0.18 -0.2,0.34 z" id="path2301"></path>
        <path class="cls-16" d="m 3126.59,964.49 c 0,0.22 0.45,0.1 0.38,-0.14 -0.22,-0.79 -0.46,-1.59 -0.71,-2.39 0.11,0.81 0.23,1.65 0.33,2.53 z" id="path2303"></path>
        <path class="cls-16" d="M 3115,939.55 A 87.61,87.61 0 0 1 3126.26,962 C 3124,945.82 3119.41,943.47 3115,939.55 Z" id="path2305"></path>
        <path class="cls-16" d="m 3110.25,933.76 a 20.84,20.84 0 0 0 4.74,5.79 c -1.42,-2.1 -2.94,-4.19 -4.54,-6.26 -0.35,-0.46 -0.45,-0.05 -0.2,0.47 z" id="path2307"></path>
        <path class="cls-36" d="m 3112.57,1037 v 0 c 2.45,7.63 5.66,13 7.88,17.81 18.36,-2.35 36.76,-9.43 52,-16.92 1.18,-6.75 2.16,-14.67 2.91,-24 0.01,0 -39.13,27.81 -62.79,23.11 z" id="path2309"></path>
        <path class="cls-15" d="m 3193.43,935.72 c -11.74,1.84 -14.91,5.8 -14.91,5.8 1.74,8.05 -4.17,47 -2.62,64.88 0.39,-0.6 15.42,-49.95 23.2,-56.82 7.02,-6.2 6.07,-15.69 -5.67,-13.86 z" id="path2311"></path>
        <path class="cls-9" d="m 3316,1318.2 -109.95,-306.26 -123.71,50.59 v 0 0 c 0.21,1.3 4.5,27.55 12.69,65.78 0.18,0.84 0.37,1.7 0.55,2.57 0.29,1.34 0.58,2.71 0.89,4.09 0.49,2.28 1,4.6 1.53,7 l 1.07,4.77 c 0.44,2 0.89,4 1.35,6 0.46,2 0.88,3.83 1.34,5.78 q 1.68,7.29 3.54,14.94 0.66,2.7 1.33,5.44 c 0.87,3.56 1.78,7.18 2.7,10.84 0.21,0.83 0.42,1.67 0.64,2.51 q 2,7.68 4.06,15.58 c 0.25,1 0.5,1.91 0.76,2.87 0.7,2.59 1.4,5.19 2.12,7.81 0.3,1.12 0.61,2.25 0.93,3.37 0.32,1.12 0.61,2.21 0.92,3.32 q 1.9,6.82 3.9,13.71 c 0.34,1.15 0.67,2.3 1,3.45 0.27,0.94 0.55,1.89 0.84,2.83 0.09,0.33 0.19,0.65 0.29,1 0.65,2.2 1.3,4.4 2,6.6 0.35,1.17 0.71,2.33 1.06,3.49 l 1.08,3.49 c 0.36,1.17 0.72,2.33 1.09,3.5 2.3,7.36 4.69,14.75 7.16,22.12 q 1,3 2.05,6 a 0.25,0.25 0 0 1 0,0.07 q 1,3.06 2.12,6.1 a 0.14,0.14 0 0 0 0,0.06 l 1.05,3 1,2.75 0.21,0.6 c 0.32,0.9 0.65,1.8 1,2.71 q 2.2,6.11 4.51,12.19 c 0.29,0.78 0.58,1.55 0.88,2.31 0.3,0.76 0.49,1.31 0.75,1.95 0.4,1.06 0.81,2.12 1.22,3.17 0.21,0.55 0.42,1.08 0.64,1.63 0.39,1 0.78,2 1.18,3 l 1,2.55 c 0.47,1.15 0.93,2.3 1.39,3.44 0.46,1.14 0.91,2.22 1.37,3.33 l 1,2.5 q 1.21,2.91 2.45,5.81 c 0.41,1 0.82,1.91 1.24,2.87 q 3.82,8.82 7.83,17.36 l 1.16,2.45 0.93,1.94 0.84,1.72 c 0.3,0.63 0.61,1.27 0.92,1.9 0.42,0.85 0.84,1.71 1.27,2.56 q 2.09,4.18 4.23,8.3 l 1.23,2.35 q 2.23,4.21 4.52,8.31 l 1.37,2.44 c 1,1.71 2,3.42 2.94,5.09 l 1.49,2.52 c 0,0 0,0 0,0 1.5,2.5 3,5 4.53,7.36 0.51,0.81 1,1.61 1.54,2.41 0,0 0,0 0,0 0.51,0.79 1,1.58 1.53,2.35 q 1.56,2.37 3.14,4.69 c 0.54,0.77 1.06,1.53 1.6,2.29 v 0 l 1.58,2.23 c 1.06,1.47 2.12,2.93 3.19,4.36 l 0.12,0.16 c 0.52,0.7 1,1.4 1.58,2.09 0,0 0,0 0,0 l 1.63,2.1 1.67,2.11 v 0 l 1.66,2 c 0.95,1.16 1.91,2.29 2.86,3.4 12.12,14.06 25.11,25.2 39,32.31 0.25,0.11 0.5,0.26 0.74,0.38 0.44,0.18 0.87,0.37 1.31,0.54 0.26,0.11 0.51,0.22 0.76,0.31 0.25,0.09 0.6,0.24 0.9,0.35 0.74,0.28 1.48,0.55 2.21,0.79 q 2.74,0.95 5.42,1.59 c 11.91,2.85 22.69,1.41 31.88,-3.73 12.28,-6.86 21.61,-20.23 26.91,-38.4 7.24,-24.68 6.92,-57.62 -3.07,-93.78 z" id="path2313"></path>
        <path class="cls-28" d="m 3082.34,1062.53 c 1.51,0.08 83.59,-1.42 114.74,16.61 32.78,32.78 118.9,239 118.9,239 v 0 l -109.94,-306.26 z" id="path2315"></path>
      </g>
      <path class="cls-37" d="M 2313.05,360 H 1958 c -100.24,0 -182,84.47 -174.08,184.4 a 170.59,170.59 0 0 0 73.76,127.21 0.31,0.31 0 0 1 0.13,0.25 v 108.63 a 0.31,0.31 0 0 0 0.5,0.24 l 99.36,-79.21 a 0.37,0.37 0 0 1 0.2,-0.07 h 351.33 c 93.2,0 172.12,-73.06 174.52,-166.22 A 170.73,170.73 0 0 0 2313.05,360 Z" id="path2319" style="fill:#ff8800;fill-opacity:1"></path>
      <path class="cls-10" d="m 2239.81,437.33 h -330.14 a 31.93,31.93 0 0 0 0,63.85 h 330.14 a 31.93,31.93 0 1 0 0,-63.85 z" id="path2321"></path>
      <path class="cls-10" d="m 2124,533.11 h -231.37 a 9.63,9.63 0 0 0 0,19.26 H 2124 a 9.63,9.63 0 1 0 0,-19.26 z" id="path2323"></path>
      <path class="cls-10" d="m 2242.74,533.11 h -53.23 a 9.63,9.63 0 0 0 0,19.26 h 53.23 a 9.63,9.63 0 1 0 0,-19.26 z" id="path2325"></path>
      <path class="cls-10" d="m 2417.91,533.11 h -128.86 a 9.63,9.63 0 0 0 0,19.26 h 128.86 a 9.63,9.63 0 1 0 0,-19.26 z" id="path2327"></path>
      <path class="cls-10" d="m 1947.32,573.32 h -53.23 a 9.64,9.64 0 0 0 0,19.27 h 53.23 a 9.64,9.64 0 0 0 0,-19.27 z" id="path2329"></path>
      <path class="cls-10" d="m 2220,633.7 h -53.23 a 9.63,9.63 0 1 0 0,19.26 H 2220 a 9.63,9.63 0 1 0 0,-19.26 z" id="path2331"></path>
      <path class="cls-10" d="m 2122.49,573.32 h -128.86 a 9.64,9.64 0 0 0 0,19.27 h 128.86 a 9.64,9.64 0 0 0 0,-19.27 z" id="path2333"></path>
      <path class="cls-10" d="m 2122.49,633.7 h -128.86 a 9.63,9.63 0 0 0 0,19.26 h 128.86 a 9.63,9.63 0 1 0 0,-19.26 z" id="path2335"></path>
      <path class="cls-37" d="m 3260.11,1584.29 h -251.45 a 120.91,120.91 0 0 0 -120.87,124.1 c 1.7,66 57.59,117.72 123.59,117.72 h 248.82 a 0.24,0.24 0 0 1 0.14,0.05 l 70.37,56.09 a 0.21,0.21 0 0 0 0.35,-0.17 v -76.93 a 0.21,0.21 0 0 1 0.09,-0.17 120.79,120.79 0 0 0 52.24,-90.1 c 5.61,-70.77 -52.29,-130.59 -123.28,-130.59 z" id="path2337" style="fill:#ff8800;fill-opacity:1"></path>
      <path class="cls-10" d="m 3294.34,1639.05 h -233.82 a 22.61,22.61 0 1 0 0,45.22 h 233.82 a 22.61,22.61 0 1 0 0,-45.22 z" id="path2339"></path>
      <path class="cls-10" d="m 3306.4,1706.88 h -163.82 a 6.83,6.83 0 0 0 0,13.65 h 163.82 a 6.83,6.83 0 1 0 0,-13.65 z" id="path2341"></path>
      <path class="cls-10" d="m 3096.15,1706.88 h -37.7 a 6.83,6.83 0 0 0 0,13.65 h 37.7 a 6.83,6.83 0 0 0 0,-13.65 z" id="path2343"></path>
      <path class="cls-10" d="m 3025.65,1706.88 h -91.26 a 6.83,6.83 0 0 0 0,13.65 h 91.26 a 6.83,6.83 0 0 0 0,-13.65 z" id="path2345"></path>
      <path class="cls-10" d="m 3305.37,1735.37 h -37.7 a 6.82,6.82 0 0 0 0,13.64 h 37.7 a 6.82,6.82 0 1 0 0,-13.64 z" id="path2347"></path>
      <path class="cls-10" d="m 3112.27,1778.13 h -37.69 a 6.82,6.82 0 1 0 0,13.64 h 37.69 a 6.82,6.82 0 1 0 0,-13.64 z" id="path2349"></path>
      <path class="cls-10" d="m 3234.87,1735.37 h -91.25 a 6.82,6.82 0 1 0 0,13.64 h 91.25 a 6.82,6.82 0 1 0 0,-13.64 z" id="path2351"></path>
      <path class="cls-10" d="m 3234.87,1778.13 h -91.25 a 6.82,6.82 0 1 0 0,13.64 h 91.25 a 6.82,6.82 0 1 0 0,-13.64 z" id="path2353"></path>
      <circle class="cls-37" cx="3681.8799" cy="1122.9" r="240.64" id="circle2355" style="fill:#ff8800;fill-opacity:1"></circle>
      <path class="cls-38" d="m 3841.31,1103 h -318.85 a 7.56,7.56 0 0 0 -7.55,8.21 c 7.35,85.95 80.69,153.27 167,153.27 86.31,0 159.63,-67.32 167,-153.27 a 7.55,7.55 0 0 0 -7.54,-8.21 z" id="path2357"></path>
      <path class="cls-17" d="m 3681.88,1256.86 c 83.78,0 152.42,-64.37 159.43,-146.33 h -318.85 c 7,81.96 75.65,146.33 159.42,146.33 z" id="path2359"></path>
      <path class="cls-39" d="m 3547.65,1183.7 h 268.47 a 159.25,159.25 0 0 0 25.19,-73.17 h -318.85 a 159.14,159.14 0 0 0 25.19,73.17 z" id="path2361"></path>
      <path class="cls-5" d="m 3529.24,1144.47 c 41.36,-18.53 161.07,-60 306.11,-2.6 a 158.16,158.16 0 0 0 6,-31.34 h -318.89 a 157.33,157.33 0 0 0 6.78,33.94 z" id="path2363"></path>
      <path class="cls-17" d="m 3600,1005 a 48.2,48.2 0 0 0 -47.72,43.81 10.834558,10.834558 0 0 0 21.59,1.85 26.23,26.23 0 0 1 52.26,0 10.83,10.83 0 0 0 10.78,9.92 c 0.31,0 0.62,0 0.93,0 a 10.83,10.83 0 0 0 9.88,-11.72 A 48.2,48.2 0 0 0 3600,1005 Z" id="path2365"></path>
      <path class="cls-17" d="m 3763.76,1005 a 48.2,48.2 0 0 0 -47.72,43.81 10.834558,10.834558 0 0 0 21.59,1.85 26.23,26.23 0 0 1 52.26,0 10.83,10.83 0 0 0 10.78,9.92 c 0.31,0 0.62,0 0.93,0 a 10.84,10.84 0 0 0 9.88,-11.72 48.2,48.2 0 0 0 -47.72,-43.86 z" id="path2367"></path>
      <path class="cls-9" d="m 864.69497,517.70574 h 550.45173 a 107.90169,108.56 0 0 1 32.2433,212.15 v 65.92 l -60.6301,-61 H 864.67509 a 107.89175,108.55 0 0 1 0,-217.09 z" id="path2369" style="fill:#00438b;fill-opacity:1;stroke-width:0.996963"></path>
      <path class="cls-9" d="m 2236.55,1357.85 a 137.2,137.2 0 0 0 -68,256.37 v 54.12 l 39.14,-39.14 a 137.21,137.21 0 1 0 28.85,-271.35 z" id="path2395" style="fill:#00438b;fill-opacity:1"></path>
      <path class="cls-18" d="M 2297.78,1460.19 2313,1445 l -26.25,-26.25 -15.13,15.12 a 70.47,70.47 0 0 0 -16.51,-6.88 v -21.35 H 2218 V 1427 a 70.47,70.47 0 0 0 -16.51,6.88 l -15.12,-15.12 -26.28,26.24 15.22,15.22 a 69.59,69.59 0 0 0 -6.73,16.42 H 2147 v 37.13 h 21.79 a 70.12,70.12 0 0 0 6.78,16.17 l -15.47,15.46 26.26,26.26 15.56,-15.56 a 70,70 0 0 0 16.07,6.63 v 22 h 37.13 v -22 a 69.91,69.91 0 0 0 16.08,-6.63 l 15.56,15.56 26.25,-26.26 -15.47,-15.46 a 70.15,70.15 0 0 0 6.79,-16.17 h 21.79 v -37.13 h -21.6 a 69.59,69.59 0 0 0 -6.74,-16.45 z m -61.23,75.34 a 40.7,40.7 0 1 1 40.7,-40.7 40.7,40.7 0 0 1 -40.7,40.7 z" id="path2397"></path>
      <path class="cls-9" d="m 2777.69,510.5 a 103.88,103.88 0 1 0 21.84,205.43 l 29.63,29.63 v -41 a 103.87,103.87 0 0 0 -51.47,-194.09 z" id="path2399" style="fill:#00438b;fill-opacity:1"></path>
      <path class="cls-10" d="m 2808.41,567.91 -51,51 -15.51,-15.52 a 16.82207,16.82207 0 0 0 -23.79,23.79 l 27.41,27.41 a 16.82,16.82 0 0 0 23.79,0 l 62.89,-62.89 a 16.82207,16.82207 0 0 0 -23.79,-23.79 z" id="path2401"></path>
      <path class="cls-23" d="m 1925.54,2263.24 h -192.67 a 22.81,22.81 0 0 0 -22.78,22.77 v 285.17 h 238.23 V 2286 a 22.81,22.81 0 0 0 -22.78,-22.76 z" id="path2403" style="fill:#ff8800;fill-opacity:1"></path>
      <path class="cls-22" d="m 1665,2399.72 c -1.1,-12.58 1.55,-22 8.1,-28.82 12.83,-13.33 38.83,-15.14 47.66,-14.72 l 1.9,-34.81 c -4.86,-0.26 -48.36,-1.82 -74.54,25.21 -9.52,9.83 -20.34,27.56 -17.85,56.16 6.52,75 79.65,117.86 82.76,119.65 l 17.37,-30.23 c -0.61,-0.35 -60.4,-35.35 -65.4,-92.44 z" id="path2405"></path>
      <path class="cls-10" d="m 1846.05,1874.51 a 50.81,50.81 0 0 0 -4.29,-7 c 0,0 1.62,2.49 4.29,7 z" id="path2409"></path>
      <path class="cls-10" d="m 1780.36,2084.33 c -57.86,107.32 61.4,150.64 61.4,150.64 -49.48,-102.48 42.4,-159 49.47,-219.1 5.87,-49.89 -32.13,-119.28 -45.18,-141.36 20.21,40.1 -11.16,108.68 -65.69,209.82 z" id="path2411"></path>
      <path class="cls-22" d="m 1776.91,2473.8 c -32,-81.92 -36,-195.69 -36.37,-210.56 h -7.67 a 22.81,22.81 0 0 0 -22.78,22.77 v 285.17 H 1837 c -7.56,-4.99 -32.31,-26.03 -60.09,-97.38 z" id="path2413"></path>
      <polygon class="cls-4" points="1038.47,2362.43 1264.81,2359.55 1152.36,2117.35 " id="polygon2415" transform="translate(33.638814,92.506739)"></polygon>
      <rect class="cls-4" x="981.27881" y="2211.2969" width="204.72" height="236.42999" id="rect2417"></rect>
      <polygon class="cls-9" points="842.4,2362.43 1058.65,2362.43 946.2,2120.23 " id="polygon2419" style="fill:#00438b;fill-opacity:1" transform="translate(33.638814,92.506739)"></polygon>
      <rect class="cls-9" x="1064.8988" y="2241.5669" width="102.36" height="10.09" id="rect2421"></rect>
      <rect class="cls-9" x="1073.5488" y="2261.7568" width="102.36" height="10.09" id="rect2423"></rect>
      <path class="cls-9" d="m 1075.3688,2295.7067 54.88,129.37 123.51,-3.48 -58.93,-125.42 z m 60.49,120.44 -47.53,-112 101.16,0.83 50.7,108.67 z" id="path2425"></path>
      <rect class="cls-18" x="1094.8088" y="2321.9368" width="109.35" height="1.46" id="rect2427"></rect>
      <rect class="cls-18" x="1104.2988" y="2345.5369" width="109.35" height="1.46" id="rect2429"></rect>
      <rect class="cls-18" x="1112.1088" y="2369.1467" width="109.35" height="1.46" id="rect2431"></rect>
      <rect class="cls-18" x="1124.9388" y="2392.7568" width="109.35" height="1.46" id="rect2433"></rect>
      <rect class="cls-18" x="123.2155" y="2580.5317" width="1.46" height="123.89" transform="rotate(-24.22)" id="rect2435"></rect>
      <rect class="cls-18" x="95.410995" y="2568.595" width="1.46" height="123.89" transform="rotate(-24.22)" id="rect2437"></rect>
      <rect class="cls-18" x="114.02731" y="2552.8696" width="1.46" height="127.63" transform="rotate(-23.21)" id="rect2439"></rect>
    </g>
  </g>
  <metadata></metadata>
</svg>
